<svg xmlns="http://www.w3.org/2000/svg" xmlns:xlink="http://www.w3.org/1999/xlink" version="1.1" x="0px" y="0px" viewBox="0 0 70 87.5" style="enable-background:new 0 0 70 70;" xml:space="preserve"><g><g><path d="M41.8598633,67.5H5.9702148C4.0566406,67.5,2.5,65.9433594,2.5,64.0302734V10.8603516    c0-0.1328125,0.0527344-0.2597656,0.1464844-0.3535156l0.6196289-0.6201172    c2.6948242-2.6953125,4.3823242-4.3828125,7.2299805-7.2392578C10.5898438,2.5527344,10.7172852,2.5,10.8500977,2.5h31.0097656    c1.9135742,0,3.4702148,1.5566406,3.4702148,3.4697266v13.7001953c0,0.2763672-0.2236328,0.5-0.5,0.5s-0.5-0.2236328-0.5-0.5    V5.9697266C44.3300781,4.6074219,43.222168,3.5,41.8598633,3.5H11.0576172    c-2.7602539,2.7695313-4.4355469,4.4453125-7.0844727,7.09375L3.5,11.0673828v52.9628906    C3.5,65.3925781,4.6079102,66.5,5.9702148,66.5h35.8896484c1.3623047,0,2.4702148-1.1074219,2.4702148-2.4697266V51.8144531    c0-0.2763672,0.2236328-0.5,0.5-0.5s0.5,0.2236328,0.5,0.5v12.2158203C45.3300781,65.9433594,43.7734375,67.5,41.8598633,67.5z"/></g><g><path d="M10.9125977,11.9072266H3c-0.2763672,0-0.5-0.2236328-0.5-0.5s0.2236328-0.5,0.5-0.5h7.4125977V3    c0-0.2763672,0.2236328-0.5,0.5-0.5s0.5,0.2236328,0.5,0.5v8.4072266    C11.4125977,11.6835938,11.1889648,11.9072266,10.9125977,11.9072266z"/></g><g><path d="M35.3012695,59.8779297H11.6777344c-0.2763672,0-0.5-0.2236328-0.5-0.5s0.2236328-0.5,0.5-0.5h23.6235352    c0.2763672,0,0.5,0.2236328,0.5,0.5S35.5776367,59.8779297,35.3012695,59.8779297z"/></g><g><path d="M38.7963867,12.5761719H21.9228516c-0.2763672,0-0.5-0.2236328-0.5-0.5s0.2236328-0.5,0.5-0.5h16.8735352    c0.2763672,0,0.5,0.2236328,0.5,0.5S39.0727539,12.5761719,38.7963867,12.5761719z"/></g><g><path d="M64.0302734,52.3134766H25.6157227c-1.9130859,0-3.4697266-1.5566406-3.4697266-3.4697266V22.6435547    c0-1.9130859,1.5566406-3.4697266,3.4697266-3.4697266h38.4145508c1.9130859,0,3.4697266,1.5566406,3.4697266,3.4697266V48.84375    C67.5,50.7568359,65.9433594,52.3134766,64.0302734,52.3134766z M25.6157227,20.1738281    c-1.3618164,0-2.4697266,1.1083984-2.4697266,2.4697266V48.84375c0,1.3613281,1.1079102,2.4697266,2.4697266,2.4697266h38.4145508    c1.3618164,0,2.4697266-1.1083984,2.4697266-2.4697266V22.6435547c0-1.3613281-1.1079102-2.4697266-2.4697266-2.4697266    H25.6157227z"/></g><g><path d="M28.0587425,37.348774l2.3702011-0.2304382c0.1426506,0.7955551,0.4320679,1.3798752,0.8682499,1.7529602    c0.4361839,0.3730888,1.0246181,0.5596313,1.7653065,0.5596313c0.7845802,0,1.3757591-0.1659698,1.7735329-0.4979057    c0.3977776-0.3319397,0.5966682-0.7201118,0.5966682-1.1645241c0-0.285305-0.0836716-0.5280838-0.2510109-0.728344    c-0.1673431-0.2002602-0.4595032-0.3744583-0.8764801-0.5225983c-0.285305-0.0987549-0.935463-0.2743263-1.9504776-0.5267105    c-1.3058052-0.3237076-2.2220631-0.7214851-2.7487755-1.1933289c-0.7406864-0.6638756-1.1110306-1.4731445-1.1110306-2.4278107    c0-0.6144943,0.1741982-1.1892128,0.5225964-1.7241554c0.3483963-0.5349407,0.8504181-0.942318,1.5060635-1.2221336    c0.6556473-0.2798157,1.4470844-0.4197235,2.3743172-0.4197235c1.5142937,0,2.654129,0.3319378,3.4195061,0.9958134    s1.1672707,1.5499573,1.2056732,2.658247l-2.436039,0.106987c-0.1042442-0.6199837-0.3278198-1.0657673-0.6707306-1.3373528    S33.5590324,31.02001,32.8732109,31.02001c-0.7077675,0-1.2619114,0.1453934-1.6624298,0.436182    c-0.2578697,0.1865444-0.3868046,0.436182-0.3868046,0.7489166c0,0.2853012,0.1207047,0.5294571,0.362114,0.73246    c0.3072491,0.2578659,1.0534229,0.5267105,2.2385235,0.8065262s2.0615807,0.5692291,2.6294403,0.868248    s1.0122719,0.7077675,1.3332367,1.2262497s0.4814491,1.1590385,0.4814491,1.9216728    c0,0.6913109-0.1920319,1.338726-0.5760918,1.9422493s-0.9272308,1.0520477-1.6295128,1.3455811    s-1.5773888,0.4402962-2.6253242,0.4402962c-1.5252686,0-2.6966534-0.3525124-3.5141525-1.0575371    S28.2178535,38.6984711,28.0587425,37.348774z"/></g><g><path d="M49.6292114,39.7436638c0.5980377,0.4279518,1.2481956,0.7681198,1.9504776,1.0205002l-0.8970566,1.7200432    c-0.3675995-0.1097336-0.7269707-0.2606125-1.0781097-0.4526443c-0.0768127-0.0384026-0.6172409-0.395031-1.6212845-1.0698814    c-0.7900658,0.3456535-1.6651764,0.5184822-2.6253242,0.5184822c-1.8544617,0-3.3070335-0.5459137-4.3577118-1.6377411    c-1.0506821-1.0918312-1.5760193-2.6253281-1.5760193-4.6004944c0-1.9696808,0.5267105-3.5018063,1.5801315-4.5963783    c1.0534248-1.0945702,2.4826775-1.6418571,4.2877579-1.6418571c1.7886238,0,3.2069054,0.547287,4.2548409,1.6418571    c1.0479355,1.0945721,1.5719032,2.6266975,1.5719032,4.5963783c0,1.04245-0.1453934,1.9587059-0.4361839,2.7487755    C50.4631691,38.5942268,50.11203,39.1785469,49.6292114,39.7436638z M47.6705055,38.3692741    c0.3127327-0.3675995,0.5472832-0.8120117,0.7036514-1.3332367s0.2345505-1.1192589,0.2345505-1.7941093    c0-1.393589-0.3072472-2.4346657-0.9217453-3.1232338c-0.6144943-0.6885643-1.4182777-1.0328465-2.4113464-1.0328465    c-0.9930725,0-1.7982254,0.3456554-2.4154663,1.0369625s-0.9258575,1.7310143-0.9258575,3.1191177    c0,1.4100494,0.3086166,2.4648438,0.9258575,3.1643829s1.3977051,1.049305,2.3413963,1.049305    c0.3511391,0,0.6830788-0.0576057,0.9958115-0.1728249c-0.4937897-0.3237076-0.9958115-0.5760918-1.5060616-0.7571487    l0.6830788-1.3908463C46.1754112,37.4091263,46.9407883,37.8206177,47.6705055,38.3692741z"/></g><g><path d="M53.0939827,41.2744179V29.3081989h2.436039v9.9334431h6.0571785v2.0327759H53.0939827z"/></g></g><text x="0" y="85" fill="#000000" font-size="5px" font-weight="bold" font-family="'Helvetica Neue', Helvetica, Arial-Unicode, Arial, Sans-serif">Created by DinosoftLab</text><text x="0" y="90" fill="#000000" font-size="5px" font-weight="bold" font-family="'Helvetica Neue', Helvetica, Arial-Unicode, Arial, Sans-serif">from the Noun Project</text></svg>